<svg width="16" height="16" viewBox="0 0 16 16" fill="none" xmlns="http://www.w3.org/2000/svg">
<mask id="mask0_4_48" style="mask-type:alpha" maskUnits="userSpaceOnUse" x="0" y="0" width="16" height="16">
<rect width="16" height="16" fill="#D9D9D9"/>
</mask>
<g mask="url(#mask0_4_48)">
<path d="M8.02715 16C5.79743 16 3.9021 15.22 2.34116 13.66C0.780388 12.1001 0 10.2059 0 7.97735C0 5.84159 0.724905 4.00991 2.17471 2.4823C3.62452 0.954539 5.39976 0.127104 7.50041 0C7.56589 0 7.63767 0.0024382 7.71574 0.00731471C7.79381 0.0121912 7.90367 0.016045 8.04533 0.0188765C7.61799 0.504955 7.28777 1.06922 7.05466 1.71166C6.82155 2.35426 6.70499 3.02706 6.70499 3.73006C6.70499 5.27686 7.24676 6.59171 8.3303 7.67461C9.41369 8.75735 10.7292 9.29873 12.2769 9.29873C12.9744 9.29873 13.6461 9.19105 14.2921 8.9757C14.938 8.76034 15.5007 8.45666 15.9802 8.06465C15.9838 8.18075 15.988 8.26907 15.9929 8.32964C15.9976 8.39004 16 8.44809 16 8.50378C15.879 10.6032 15.0542 12.3774 13.5257 13.8263C11.997 15.2754 10.1642 16 8.02715 16ZM8.02715 14.929C9.65199 14.929 11.0792 14.4375 12.3088 13.4545C13.5383 12.4713 14.3346 11.2942 14.6979 9.92308C14.3287 10.0719 13.9366 10.1835 13.5217 10.2579C13.1068 10.3325 12.6918 10.3698 12.2769 10.3698C10.4366 10.3698 8.86932 9.72298 7.57502 8.42945C6.28072 7.13591 5.63357 5.56945 5.63357 3.73006C5.63357 3.36464 5.66836 2.98222 5.73793 2.58282C5.8075 2.18358 5.92948 1.74194 6.10388 1.2579C4.6462 1.70088 3.44304 2.54617 2.49439 3.79377C1.54574 5.04137 1.07142 6.4359 1.07142 7.97735C1.07142 9.90861 1.74761 11.55 3.09999 12.9016C4.45237 14.2532 6.09475 14.929 8.02715 14.929Z" fill="#1C1B1F"/>
</g>
</svg>
