<svg width="48" height="48" viewBox="0 0 48 48" fill="none" xmlns="http://www.w3.org/2000/svg">
<rect width="48" height="48" rx="8" fill="#3066E3"/>
<mask id="mask0_13_2" style="mask-type:alpha" maskUnits="userSpaceOnUse" x="8" y="8" width="32" height="32">
<rect x="8" y="8" width="32" height="32" fill="#D9D9D9"/>
</mask>
<g mask="url(#mask0_13_2)">
<path d="M24 40C22.0663 40 20.3263 39.4448 18.78 38.3345C17.2337 37.2242 16.003 35.7986 15.0879 34.0575L10.6302 36.588L9.53897 34.714L14.1819 32.0472C14.0215 31.5159 13.8803 30.9785 13.7582 30.435C13.636 29.8915 13.5429 29.342 13.4787 28.7863H8V26.6097H13.4605C13.4999 25.9927 13.5837 25.3816 13.712 24.7764C13.8402 24.1715 13.9969 23.5727 14.1819 22.98L9.52069 20.2653L10.6119 18.4099L15.0398 20.988C15.3037 20.4889 15.5996 20.0206 15.9276 19.5829C16.2559 19.1449 16.6001 18.7244 16.9602 18.3212C16.9082 18.0901 16.8662 17.873 16.8342 17.67C16.8021 17.4673 16.7861 17.2504 16.7861 17.0193C16.7861 16.1241 16.9514 15.2683 17.2819 14.4518C17.6125 13.6353 18.0761 12.9037 18.6728 12.2569L15.9243 9.56379L17.4445 8L20.3969 10.8955C20.9419 10.539 21.5122 10.2716 22.1075 10.0932C22.7033 9.91514 23.3341 9.8261 24 9.8261C24.6659 9.8261 25.2998 9.91834 25.9016 10.1028C26.5034 10.2869 27.0706 10.5512 27.6031 10.8955L30.5555 8L32.0757 9.56379L29.3085 12.3231C29.8734 12.9698 30.3242 13.6935 30.6609 14.494C30.9975 15.2945 31.1658 16.1363 31.1658 17.0193C31.1658 17.2504 31.1578 17.4624 31.1418 17.6551C31.1258 17.8482 31.098 18.0543 31.0586 18.2733C31.4186 18.6764 31.7516 19.0938 32.0575 19.5254C32.3633 19.957 32.6482 20.4285 32.9121 20.94L37.351 18.4392L38.4428 20.2946L33.8181 22.9321C34.0105 23.5002 34.1659 24.0713 34.2842 24.6455C34.4028 25.2196 34.4879 25.813 34.5395 26.4255H40V28.6017H34.5395C34.4879 29.1823 34.4028 29.7644 34.2842 30.3482C34.1659 30.9323 34.0105 31.5084 33.8181 32.0765L38.4793 34.7619L37.3881 36.6173L32.9304 34.0393C32.0153 35.7803 30.7816 37.2091 29.2291 38.3254C27.6767 39.4418 25.9337 40 24 40ZM18.9796 16.569C19.7295 16.0674 20.5237 15.685 21.3621 15.4219C22.2008 15.1588 23.0801 15.0272 24 15.0272C24.9077 15.0272 25.779 15.1588 26.6138 15.4219C27.4487 15.685 28.2349 16.0514 28.9723 16.521C28.8415 15.3186 28.2865 14.2649 27.3073 13.3599C26.3282 12.4548 25.2257 12.0023 24 12.0023C22.7743 12.0023 21.6669 12.4548 20.6777 13.3599C19.689 14.2649 19.1229 15.3346 18.9796 16.569ZM24 37.8238C26.4319 37.8238 28.4425 36.7548 30.0318 34.6166C31.6214 32.4782 32.4162 30.1105 32.4162 27.5136C32.4162 25.1527 31.6695 22.8441 30.1761 20.588C28.683 18.3316 26.6243 17.2034 24 17.2034C21.3636 17.2034 19.3017 18.3316 17.8143 20.588C16.3273 22.8441 15.5838 25.1527 15.5838 27.5136C15.5838 30.1105 16.3786 32.4782 17.9682 34.6166C19.5575 36.7548 21.5681 37.8238 24 37.8238ZM22.9088 32.7886V22.7H25.0912V32.7886H22.9088Z" fill="white"/>
</g>
</svg>
