<svg width="24" height="24" viewBox="0 0 24 24" fill="none" xmlns="http://www.w3.org/2000/svg">
<mask id="mask0_4_24" style="mask-type:alpha" maskUnits="userSpaceOnUse" x="0" y="0" width="24" height="24">
<rect width="24" height="24" fill="#D9D9D9"/>
</mask>
<g mask="url(#mask0_4_24)">
<path d="M12 24C10.5498 24 9.24476 23.5836 8.085 22.7509C6.92525 21.9182 6.00222 20.8489 5.31594 19.5431L1.97265 21.441L1.15423 20.0355L4.63639 18.0354C4.51616 17.6369 4.41023 17.2339 4.31862 16.8263C4.227 16.4186 4.15714 16.0065 4.10905 15.5898H0V13.9573H4.09534C4.12492 13.4945 4.1878 13.0362 4.28399 12.5823C4.38017 12.1286 4.49764 11.6795 4.63639 11.235L1.14052 9.19898L1.95894 7.80746L5.27987 9.74099C5.47777 9.3667 5.69972 9.01543 5.94571 8.68719C6.19195 8.3587 6.45009 8.04328 6.72013 7.74093C6.68117 7.56757 6.64967 7.40476 6.62563 7.25251C6.60158 7.10049 6.58956 6.93781 6.58956 6.76445C6.58956 6.09309 6.71352 5.45122 6.96144 4.83884C7.20935 4.22646 7.55707 3.67774 8.00457 3.19269L5.94319 1.17285L7.08335 0L9.29766 2.17162C9.70645 1.90427 10.1341 1.7037 10.5807 1.56991C11.0274 1.43635 11.5006 1.36958 12 1.36958C12.4994 1.36958 12.9748 1.43875 13.4262 1.5771C13.8775 1.71521 14.3029 1.91338 14.7023 2.17162L16.9166 0L18.0568 1.17285L15.9814 3.24232C16.4051 3.72738 16.7432 4.2701 16.9956 4.87049C17.2481 5.47088 17.3744 6.1022 17.3744 6.76445C17.3744 6.93781 17.3684 7.09678 17.3563 7.24136C17.3443 7.38618 17.3235 7.54072 17.2939 7.70496C17.564 8.00731 17.8137 8.32033 18.0431 8.64403C18.2725 8.96772 18.4862 9.32138 18.6841 9.70502L22.0133 7.8294L22.8321 9.22092L19.3636 11.199C19.5079 11.6251 19.6244 12.0535 19.7131 12.4841C19.8021 12.9147 19.8659 13.3597 19.9047 13.8192H24V15.4513H19.9047C19.8659 15.8867 19.8021 16.3233 19.7131 16.7612C19.6244 17.1992 19.5079 17.6313 19.3636 18.0574L22.8595 20.0715L22.0411 21.463L18.6978 19.5294C18.0115 20.8352 17.0862 21.9068 15.9218 22.7441C14.7575 23.5814 13.4502 24 12 24ZM8.23469 6.42673C8.79714 6.05053 9.39277 5.76376 10.0216 5.56643C10.6506 5.3691 11.3101 5.27043 12 5.27043C12.6808 5.27043 13.3342 5.3691 13.9604 5.56643C14.5866 5.76376 15.1762 6.03854 15.7292 6.39077C15.6311 5.48899 15.2149 4.69869 14.4805 4.0199C13.7461 3.3411 12.9193 3.00171 12 3.00171C11.0807 3.00171 10.2501 3.3411 9.50831 4.0199C8.76672 4.69869 8.34218 5.50097 8.23469 6.42673ZM12 22.3679C13.8239 22.3679 15.3319 21.5661 16.5239 19.9625C17.7161 18.3586 18.3122 16.5829 18.3122 14.6352C18.3122 12.8645 17.7521 11.1331 16.6321 9.44103C15.5122 7.74872 13.9682 6.90256 12 6.90256C10.0227 6.90256 8.47624 7.74872 7.36073 9.44103C6.24545 11.1331 5.68782 12.8645 5.68782 14.6352C5.68782 16.5829 6.28393 18.3586 7.47615 19.9625C8.66813 21.5661 10.1761 22.3679 12 22.3679ZM11.1816 18.5915V11.025H12.8184V18.5915H11.1816Z" fill="white"/>
</g>
</svg>
